<svg width="657.9px" height="121.4px" xmlns="http://www.w3.org/2000/svg" viewBox="-78.94687499999998 14.300000000000004 657.89375 121.39999999999999" style="background: rgba(0, 0, 0, 0)" preserveAspectRatio="xMidYMid"><defs><linearGradient id="editing-gradow-gradient" x1="0" x2="1" y1="0.5" y2="0.5" gradientUnits="objectBoundingBox"><stop offset="0" stop-color="#ff00ff"></stop><stop offset="1" stop-color="#00ffff"></stop></linearGradient><filter id="editing-gradow-filter" x="-100%" y="-100%" width="300%" height="300%"><feFlood flood-color="#fffcd9" result="flood"></feFlood><feComposite operator="in" in2="SourceAlpha" in="flood" result="shadow"></feComposite><feOffset dx="-4" dy="-4" in="SourceGraphic" result="offset-1"></feOffset><feOffset dx="4" dy="4" in="shadow" result="offset-2"></feOffset><feMerge><feMergeNode in="offset-2"></feMergeNode><feMergeNode in="offset-1"></feMergeNode></feMerge></filter></defs><g filter="url(#editing-gradow-filter)"><g transform="matrix(1.4,0,0,1.5,-63.7,168.1)"><path d="M 0.7 -33.3 L -13.3 -33.3 L -5.1 -75.5 L 8.9 -75.5 L 0.7 -33.3 Z M 56.4 -32 L 56.4 -32 L 56.4 -32 Q 48.7 -32 48.7 -38 L 48.7 -38 L 48.7 -38 Q 48.7 -40.6 49.8 -45.7 L 49.8 -45.7 L 49.8 -45.7 Q 50.9 -50.8 51.3 -52.9 L 51.3 -52.9 L 51.3 -52.9 Q 52.2 -57.5 52.2 -59 L 52.2 -59 L 52.2 -59 Q 52.2 -62.3 49.8 -62.3 L 49.8 -62.3 L 49.8 -62.3 Q 48.2 -62.3 46.6 -60.1 L 46.6 -60.1 L 46.6 -60.1 Q 45.1 -57.9 44.4 -53.4 L 44.4 -53.4 L 40.4 -33.3 L 28 -32 L 31.4 -49.4 L 31.4 -49.4 Q 32 -52.3 32.5 -55.5 L 32.5 -55.5 L 32.5 -55.5 Q 33 -58.8 33 -59.3 L 33 -59.3 L 33 -59.3 Q 33 -62.3 30.8 -62.3 L 30.8 -62.3 L 30.8 -62.3 Q 29.4 -62.3 27.8 -60.1 L 27.8 -60.1 L 27.8 -60.1 Q 26.2 -57.9 25.3 -53.4 L 25.3 -53.4 L 21.4 -33.3 L 8.8 -32 L 15.5 -65.9 L 25.9 -67.2 L 24.8 -60.7 L 24.8 -60.7 Q 26.5 -64.2 29.6 -65.7 L 29.6 -65.7 L 29.6 -65.7 Q 32.6 -67.2 37.4 -67.2 L 37.4 -67.2 L 37.4 -67.2 Q 40.2 -67.2 42 -65.9 L 42 -65.9 L 42 -65.9 Q 43.8 -64.5 44.3 -62.3 L 44.3 -62.3 L 44.3 -62.3 Q 45.4 -64.6 48.2 -65.9 L 48.2 -65.9 L 48.2 -65.9 Q 51 -67.2 54.4 -67.2 L 54.4 -67.2 L 54.4 -67.2 Q 57.8 -67.2 59.5 -66.5 L 59.5 -66.5 L 59.5 -66.5 Q 61.2 -65.7 62.3 -64.5 L 62.3 -64.5 L 62.3 -64.5 Q 64 -62.3 64 -58.2 L 64 -58.2 L 64 -58.2 Q 64 -54.1 62.3 -45.8 L 62.3 -45.8 L 62.3 -45.8 Q 61.4 -41.7 61.4 -40.2 L 61.4 -40.2 L 61.4 -40.2 Q 61.4 -38.7 62.2 -37.8 L 62.2 -37.8 L 62.2 -37.8 Q 63.1 -36.9 64.4 -36.7 L 64.4 -36.7 L 64.4 -36.7 Q 63.7 -34.6 61.5 -33.3 L 61.5 -33.3 L 61.5 -33.3 Q 59.3 -32 56.4 -32 Z M 72.1 -35.2 L 72.1 -35.2 L 72.1 -35.2 Q 70.6 -36.9 69.9 -39.5 L 69.9 -39.5 L 69.9 -39.5 Q 69.2 -42.1 69.2 -46.4 L 69.2 -46.4 L 69.2 -46.4 Q 69.2 -50.7 70.7 -54.6 L 70.7 -54.6 L 70.7 -54.6 Q 72.2 -58.5 74.9 -61.3 L 74.9 -61.3 L 74.9 -61.3 Q 80.4 -67.2 89.5 -67.2 L 89.5 -67.2 L 89.5 -67.2 Q 92.7 -67.2 95.1 -66.1 L 95.1 -66.1 L 106 -67.2 L 101.3 -42.2 L 101.3 -42.2 Q 101.1 -41.5 101.1 -40.1 L 101.1 -40.1 L 101.1 -40.1 Q 101.1 -38.7 102 -37.8 L 102 -37.8 L 102 -37.8 Q 102.8 -36.9 104.1 -36.7 L 104.1 -36.7 L 104.1 -36.7 Q 103.5 -34.6 101.1 -33.3 L 101.1 -33.3 L 101.1 -33.3 Q 98.8 -32 96.2 -32 L 96.2 -32 L 96.2 -32 Q 93.6 -32 91.8 -33 L 91.8 -33 L 91.8 -33 Q 90 -34 89.5 -35.6 L 89.5 -35.6 L 89.5 -35.6 Q 88.5 -34 86.3 -33 L 86.3 -33 L 86.3 -33 Q 84.1 -32 81.2 -32 L 81.2 -32 L 81.2 -32 Q 78.3 -32 76 -32.8 L 76 -32.8 L 76 -32.8 Q 73.6 -33.5 72.1 -35.2 Z M 85.6 -61.2 L 85.6 -61.2 L 85.6 -61.2 Q 84.9 -60 84.2 -58.1 L 84.2 -58.1 L 84.2 -58.1 Q 83.6 -56.1 82.5 -50.9 L 82.5 -50.9 L 82.5 -50.9 Q 81.5 -45.7 81.5 -42 L 81.5 -42 L 81.5 -42 Q 81.5 -38.3 82 -37.2 L 82 -37.2 L 82 -37.2 Q 82.6 -36.1 83.6 -36.1 L 83.6 -36.1 L 83.6 -36.1 Q 85.7 -36.1 87.2 -38 L 87.2 -38 L 87.2 -38 Q 88.7 -40 89.3 -43.5 L 89.3 -43.5 L 92.7 -62.2 L 92.7 -62.2 Q 91.3 -63.4 89.7 -63.4 L 89.7 -63.4 L 89.7 -63.4 Q 88.2 -63.4 87.3 -62.8 L 87.3 -62.8 L 87.3 -62.8 Q 86.3 -62.3 85.6 -61.2 Z M 113.8 -60 L 113.8 -60 L 113.8 -60 Q 116 -63.1 119.3 -65.1 L 119.3 -65.1 L 119.3 -65.1 Q 122.5 -67.2 126.6 -67.2 L 126.6 -67.2 L 126.6 -67.2 Q 130.6 -67.2 132.5 -65.9 L 132.5 -65.9 L 145.1 -67.2 L 140.7 -42.6 L 140.7 -42.6 Q 138.5 -30.1 133.7 -25.1 L 133.7 -25.1 L 133.7 -25.1 Q 129.2 -20.5 120.4 -20.5 L 120.4 -20.5 L 120.4 -20.5 Q 113.7 -20.5 109.8 -22.6 L 109.8 -22.6 L 109.8 -22.6 Q 106 -24.7 106 -28.2 L 106 -28.2 L 106 -28.2 Q 106 -30.8 108 -32.3 L 108 -32.3 L 108 -32.3 Q 109.9 -33.9 113 -33.9 L 113 -33.9 L 113 -33.9 Q 115.7 -33.9 117.7 -32.6 L 117.7 -32.6 L 117.7 -32.6 Q 119 -32 119.5 -31.1 L 119.5 -31.1 L 119.5 -31.1 Q 118.1 -29.8 118.1 -27.7 L 118.1 -27.7 L 118.1 -27.7 Q 118.1 -25 120.6 -25 L 120.6 -25 L 120.6 -25 Q 124.9 -25 127.3 -35.1 L 127.3 -35.1 L 127.3 -35.1 Q 128.1 -37.8 128.6 -40.6 L 128.6 -40.6 L 128.6 -40.6 Q 125.7 -37.1 119.2 -37.1 L 119.2 -37.1 L 119.2 -37.1 Q 114.7 -37.1 112.1 -39.2 L 112.1 -39.2 L 112.1 -39.2 Q 109.4 -41.4 109.4 -46.5 L 109.4 -46.5 L 109.4 -46.5 Q 109.4 -49.7 110.5 -53.3 L 110.5 -53.3 L 110.5 -53.3 Q 111.6 -57 113.8 -60 Z M 122.1 -46.3 L 122.1 -46.3 L 122.1 -46.3 Q 122.1 -42 124.3 -42 L 124.3 -42 L 124.3 -42 Q 125.9 -42 127.3 -43.6 L 127.3 -43.6 L 127.3 -43.6 Q 128.5 -45 128.9 -47 L 128.9 -47 L 132.2 -63.4 L 132.2 -63.4 Q 131.9 -63.5 131.6 -63.6 L 131.6 -63.6 L 131.6 -63.6 Q 130.9 -63.9 130.1 -63.9 L 130.1 -63.9 L 130.1 -63.9 Q 126.2 -63.9 123.9 -57.5 L 123.9 -57.5 L 123.9 -57.5 Q 122.1 -52.5 122.1 -46.3 Z M 173.5 -44.1 L 173.5 -44.1 L 173.5 -44.1 Q 175.1 -43 175.1 -40.6 L 175.1 -40.6 L 175.1 -40.6 Q 175.1 -38.2 173.9 -36.7 L 173.9 -36.7 L 173.9 -36.7 Q 172.7 -35.1 170.7 -34.1 L 170.7 -34.1 L 170.7 -34.1 Q 166.6 -32 162.2 -32 L 162.2 -32 L 162.2 -32 Q 157.7 -32 155.2 -33 L 155.2 -33 L 155.2 -33 Q 152.6 -33.9 150.8 -35.7 L 150.8 -35.7 L 150.8 -35.7 Q 147.4 -39.1 147.4 -45.3 L 147.4 -45.3 L 147.4 -45.3 Q 147.4 -55 152.7 -60.9 L 152.7 -60.9 L 152.7 -60.9 Q 158.3 -67.2 168.1 -67.2 L 168.1 -67.2 L 168.1 -67.2 Q 174.2 -67.2 177.2 -64.6 L 177.2 -64.6 L 177.2 -64.6 Q 179.4 -62.7 179.4 -59.6 L 179.4 -59.6 L 179.4 -59.6 Q 179.4 -48.3 160 -48.3 L 160 -48.3 L 160 -48.3 Q 159.7 -46.7 159.7 -45.2 L 159.7 -45.2 L 159.7 -45.2 Q 159.7 -42.3 161 -41.2 L 161 -41.2 L 161 -41.2 Q 162.4 -40.1 164.8 -40.1 L 164.8 -40.1 L 164.8 -40.1 Q 167.2 -40.1 169.8 -41.2 L 169.8 -41.2 L 169.8 -41.2 Q 172.4 -42.3 173.5 -44.1 Z M 160.4 -51.1 L 160.4 -51.1 L 160.4 -51.1 Q 165 -51.1 167.6 -53.9 L 167.6 -53.9 L 167.6 -53.9 Q 170.2 -56.6 170.2 -60.9 L 170.2 -60.9 L 170.2 -60.9 Q 170.2 -62.3 169.7 -63.1 L 169.7 -63.1 L 169.7 -63.1 Q 169.1 -63.9 168.1 -63.9 L 168.1 -63.9 L 168.1 -63.9 Q 167 -63.9 166 -63.5 L 166 -63.5 L 166 -63.5 Q 165.1 -63.1 164.1 -61.7 L 164.1 -61.7 L 164.1 -61.7 Q 161.8 -58.5 160.4 -51.1 Z M 200.8 -55.7 L 200.8 -55.7 L 200.8 -55.7 Q 201.7 -58.1 201.7 -60.2 L 201.7 -60.2 L 201.7 -60.2 Q 201.7 -63.9 198.6 -63.9 L 198.6 -63.9 L 198.6 -63.9 Q 197 -63.9 195.7 -62.5 L 195.7 -62.5 L 195.7 -62.5 Q 194.4 -61.1 194.4 -59.3 L 194.4 -59.3 L 194.4 -59.3 Q 194.4 -58 195.4 -57 L 195.4 -57 L 195.4 -57 Q 196.9 -55.5 200.6 -53.2 L 200.6 -53.2 L 200.6 -53.2 Q 204.4 -50.9 205.8 -49.1 L 205.8 -49.1 L 205.8 -49.1 Q 207.3 -47.2 207.3 -44.6 L 207.3 -44.6 L 207.3 -44.6 Q 207.3 -42 206 -39.6 L 206 -39.6 L 206 -39.6 Q 204.8 -37.2 202.5 -35.6 L 202.5 -35.6 L 202.5 -35.6 Q 197.7 -32 190.1 -32 L 190.1 -32 L 190.1 -32 Q 185.9 -32 182.7 -34.2 L 182.7 -34.2 L 182.7 -34.2 Q 179.5 -36.3 179.5 -38.8 L 179.5 -38.8 L 179.5 -38.8 Q 179.5 -41.3 181.3 -42.7 L 181.3 -42.7 L 181.3 -42.7 Q 183.2 -44.2 185.8 -44.2 L 185.8 -44.2 L 185.8 -44.2 Q 188.5 -44.2 190.2 -43.2 L 190.2 -43.2 L 190.2 -43.2 Q 189.4 -41.1 189.4 -39.7 L 189.4 -39.7 L 189.4 -39.7 Q 189.4 -35.5 192.9 -35.5 L 192.9 -35.5 L 192.9 -35.5 Q 194.5 -35.5 195.5 -36.4 L 195.5 -36.4 L 195.5 -36.4 Q 196.5 -37.4 196.5 -39 L 196.5 -39 L 196.5 -39 Q 196.5 -42.3 191 -45.8 L 191 -45.8 L 191 -45.8 Q 186.5 -48.7 185.5 -49.9 L 185.5 -49.9 L 185.5 -49.9 Q 183.8 -51.9 183.8 -54.5 L 183.8 -54.5 L 183.8 -54.5 Q 183.8 -57 185 -59.5 L 185 -59.5 L 185 -59.5 Q 186.2 -61.9 188.5 -63.6 L 188.5 -63.6 L 188.5 -63.6 Q 193.1 -67.2 201.3 -67.2 L 201.3 -67.2 L 201.3 -67.2 Q 205.4 -67.2 207.9 -65.5 L 207.9 -65.5 L 207.9 -65.5 Q 210.4 -63.9 210.4 -61.1 L 210.4 -61.1 L 210.4 -61.1 Q 210.4 -58.2 208.7 -56.6 L 208.7 -56.6 L 208.7 -56.6 Q 207 -55 203.9 -55 L 203.9 -55 L 203.9 -55 Q 201.8 -55 200.8 -55.7 Z M 251.8 -53.9 L 264.8 -55 L 264.8 -55 Q 260.1 -44.9 260.1 -33.2 L 260.1 -33.2 L 260.1 -33.2 Q 258.4 -32 255.9 -32 L 255.9 -32 L 255.9 -32 Q 253.4 -32 251.8 -33.2 L 251.8 -33.2 L 251.8 -33.2 Q 250.2 -34.4 249.8 -35.6 L 249.8 -35.6 L 249.8 -35.6 Q 248.2 -33.9 245.7 -33 L 245.7 -33 L 245.7 -33 Q 243.1 -32 240.3 -32 L 240.3 -32 L 240.3 -32 Q 237.6 -32 235.2 -32.9 L 235.2 -32.9 L 235.2 -32.9 Q 232.8 -33.8 230.9 -35.8 L 230.9 -35.8 L 230.9 -35.8 Q 226.8 -40.1 226.8 -48.4 L 226.8 -48.4 L 226.8 -48.4 Q 226.8 -61.2 233.7 -68.9 L 233.7 -68.9 L 233.7 -68.9 Q 240.7 -76.8 253.2 -76.8 L 253.2 -76.8 L 253.2 -76.8 Q 261.8 -76.8 264.9 -72.3 L 264.9 -72.3 L 264.9 -72.3 Q 265.8 -70.9 265.8 -69.2 L 265.8 -69.2 L 265.8 -69.2 Q 265.8 -67.5 265.1 -66.1 L 265.1 -66.1 L 265.1 -66.1 Q 264.4 -64.6 263.2 -63.5 L 263.2 -63.5 L 263.2 -63.5 Q 260.5 -60.9 257.1 -60.9 L 257.1 -60.9 L 257.1 -60.9 Q 255.7 -60.9 254.5 -61.4 L 254.5 -61.4 L 254.5 -61.4 Q 254.7 -63.3 254.7 -65.5 L 254.7 -65.5 L 254.7 -65.5 Q 254.7 -67.8 254.5 -68.8 L 254.5 -68.8 L 254.5 -68.8 Q 254.4 -69.8 254 -70.7 L 254 -70.7 L 254 -70.7 Q 253.2 -72.4 251.3 -72.4 L 251.3 -72.4 L 251.3 -72.4 Q 249.5 -72.4 247.5 -70.4 L 247.5 -70.4 L 247.5 -70.4 Q 245.5 -68.5 243.9 -65.3 L 243.9 -65.3 L 243.9 -65.3 Q 240.4 -58.1 240.4 -49.5 L 240.4 -49.5 L 240.4 -49.5 Q 240.4 -45.5 241.9 -42.7 L 241.9 -42.7 L 241.9 -42.7 Q 243.6 -39.6 246.5 -39.6 L 246.5 -39.6 L 246.5 -39.6 Q 247.5 -39.6 248.5 -40.1 L 248.5 -40.1 L 248.5 -40.1 Q 249.4 -40.6 249.8 -41 L 249.8 -41 L 251.8 -53.9 Z M 270.7 -35.2 L 270.7 -35.2 L 270.7 -35.2 Q 269.2 -36.9 268.5 -39.5 L 268.5 -39.5 L 268.5 -39.5 Q 267.8 -42.1 267.8 -46.4 L 267.8 -46.4 L 267.8 -46.4 Q 267.8 -50.7 269.3 -54.6 L 269.3 -54.6 L 269.3 -54.6 Q 270.8 -58.5 273.5 -61.3 L 273.5 -61.3 L 273.5 -61.3 Q 279 -67.2 288.1 -67.2 L 288.1 -67.2 L 288.1 -67.2 Q 291.3 -67.2 293.7 -66.1 L 293.7 -66.1 L 304.6 -67.2 L 299.9 -42.2 L 299.9 -42.2 Q 299.7 -41.5 299.7 -40.1 L 299.7 -40.1 L 299.7 -40.1 Q 299.7 -38.7 300.6 -37.8 L 300.6 -37.8 L 300.6 -37.8 Q 301.4 -36.9 302.7 -36.7 L 302.7 -36.7 L 302.7 -36.7 Q 302.1 -34.6 299.7 -33.3 L 299.7 -33.3 L 299.7 -33.3 Q 297.4 -32 294.8 -32 L 294.8 -32 L 294.8 -32 Q 292.1 -32 290.4 -33 L 290.4 -33 L 290.4 -33 Q 288.6 -34 288.1 -35.6 L 288.1 -35.6 L 288.1 -35.6 Q 287.1 -34 284.9 -33 L 284.9 -33 L 284.9 -33 Q 282.7 -32 279.8 -32 L 279.8 -32 L 279.8 -32 Q 276.9 -32 274.5 -32.8 L 274.5 -32.8 L 274.5 -32.8 Q 272.2 -33.5 270.7 -35.2 Z M 284.2 -61.2 L 284.2 -61.2 L 284.2 -61.2 Q 283.4 -60 282.8 -58.1 L 282.8 -58.1 L 282.8 -58.1 Q 282.2 -56.1 281.1 -50.9 L 281.1 -50.9 L 281.1 -50.9 Q 280.1 -45.7 280.1 -42 L 280.1 -42 L 280.1 -42 Q 280.1 -38.3 280.6 -37.2 L 280.6 -37.2 L 280.6 -37.2 Q 281.2 -36.1 282.2 -36.1 L 282.2 -36.1 L 282.2 -36.1 Q 284.3 -36.1 285.8 -38 L 285.8 -38 L 285.8 -38 Q 287.3 -40 287.9 -43.5 L 287.9 -43.5 L 291.3 -62.2 L 291.3 -62.2 Q 289.9 -63.4 288.3 -63.4 L 288.3 -63.4 L 288.3 -63.4 Q 286.8 -63.4 285.8 -62.8 L 285.8 -62.8 L 285.8 -62.8 Q 284.9 -62.3 284.2 -61.2 Z M 323.4 -36.8 L 323.4 -36.8 L 323.4 -36.8 Q 321.4 -32 315.1 -32 L 315.1 -32 L 315.1 -32 Q 311.9 -32 309.8 -34.2 L 309.8 -34.2 L 309.8 -34.2 Q 308.1 -36.1 308.1 -38.2 L 308.1 -38.2 L 308.1 -38.2 Q 308.1 -43 310.4 -53.5 L 310.4 -53.5 L 315.1 -78.1 L 328.1 -79.4 L 321.8 -47 L 321.8 -47 Q 320.8 -42.2 320.8 -40.6 L 320.8 -40.6 L 320.8 -40.6 Q 320.8 -36.9 323.4 -36.8 Z M 344.1 -36.8 L 344.1 -36.8 L 344.1 -36.8 Q 342.1 -32 335.8 -32 L 335.8 -32 L 335.8 -32 Q 332.6 -32 330.5 -34.2 L 330.5 -34.2 L 330.5 -34.2 Q 328.9 -36.1 328.9 -38.2 L 328.9 -38.2 L 328.9 -38.2 Q 328.9 -43 331.1 -53.5 L 331.1 -53.5 L 335.8 -78.1 L 348.8 -79.4 L 342.6 -47 L 342.6 -47 Q 341.5 -42.2 341.5 -40.6 L 341.5 -40.6 L 341.5 -40.6 Q 341.5 -36.9 344.1 -36.8 Z M 375.5 -44.1 L 375.5 -44.1 L 375.5 -44.1 Q 377.1 -43 377.1 -40.6 L 377.1 -40.6 L 377.1 -40.6 Q 377.1 -38.2 375.9 -36.7 L 375.9 -36.7 L 375.9 -36.7 Q 374.6 -35.1 372.7 -34.1 L 372.7 -34.1 L 372.7 -34.1 Q 368.6 -32 364.1 -32 L 364.1 -32 L 364.1 -32 Q 359.7 -32 357.1 -33 L 357.1 -33 L 357.1 -33 Q 354.5 -33.9 352.8 -35.7 L 352.8 -35.7 L 352.8 -35.7 Q 349.4 -39.1 349.4 -45.3 L 349.4 -45.3 L 349.4 -45.3 Q 349.4 -55 354.7 -60.9 L 354.7 -60.9 L 354.7 -60.9 Q 360.3 -67.2 370.1 -67.2 L 370.1 -67.2 L 370.1 -67.2 Q 376.2 -67.2 379.2 -64.6 L 379.2 -64.6 L 379.2 -64.6 Q 381.4 -62.7 381.4 -59.6 L 381.4 -59.6 L 381.4 -59.6 Q 381.4 -48.3 362 -48.3 L 362 -48.3 L 362 -48.3 Q 361.7 -46.7 361.7 -45.2 L 361.7 -45.2 L 361.7 -45.2 Q 361.7 -42.3 363 -41.2 L 363 -41.2 L 363 -41.2 Q 364.3 -40.1 366.8 -40.1 L 366.8 -40.1 L 366.8 -40.1 Q 369.2 -40.1 371.8 -41.2 L 371.8 -41.2 L 371.8 -41.2 Q 374.4 -42.3 375.5 -44.1 Z M 362.4 -51.1 L 362.4 -51.1 L 362.4 -51.1 Q 367 -51.1 369.6 -53.9 L 369.6 -53.9 L 369.6 -53.9 Q 372.2 -56.6 372.2 -60.9 L 372.2 -60.9 L 372.2 -60.9 Q 372.2 -62.3 371.7 -63.1 L 371.7 -63.1 L 371.7 -63.1 Q 371.1 -63.9 370 -63.9 L 370 -63.9 L 370 -63.9 Q 368.9 -63.9 368 -63.5 L 368 -63.5 L 368 -63.5 Q 367.1 -63.1 366.1 -61.7 L 366.1 -61.7 L 366.1 -61.7 Q 363.8 -58.5 362.4 -51.1 Z M 403.6 -51.3 L 403.6 -51.3 L 403.6 -51.3 Q 405.9 -55.4 405.9 -59.5 L 405.9 -59.5 L 405.9 -59.5 Q 405.9 -62.3 404 -62.3 L 404 -62.3 L 404 -62.3 Q 402.4 -62.3 400.8 -59.6 L 400.8 -59.6 L 400.8 -59.6 Q 399.2 -57 398.6 -53.6 L 398.6 -53.6 L 395.3 -33.3 L 382.1 -32 L 388.6 -65.9 L 399.2 -67.2 L 398 -60.7 L 398 -60.7 Q 401.1 -67.2 408.2 -67.2 L 408.2 -67.2 L 408.2 -67.2 Q 411.9 -67.2 413.9 -65.3 L 413.9 -65.3 L 413.9 -65.3 Q 415.9 -63.4 415.9 -59.4 L 415.9 -59.4 L 415.9 -59.4 Q 415.9 -55.5 413.3 -53 L 413.3 -53 L 413.3 -53 Q 410.7 -50.5 406.3 -50.5 L 406.3 -50.5 L 406.3 -50.5 Q 404.4 -50.5 403.6 -51.3 Z M 437.3 -40.5 L 437.3 -40.5 L 437.3 -40.5 Q 434 -37.1 427.9 -37.1 L 427.9 -37.1 L 427.9 -37.1 Q 420.3 -37.1 418.7 -42.6 L 418.7 -42.6 L 418.7 -42.6 Q 418.2 -44.3 418.2 -46.1 L 418.2 -46.1 L 418.2 -46.1 Q 418.2 -48 418.5 -49.9 L 418.5 -49.9 L 421.6 -65.9 L 434.5 -67.2 L 431 -48.6 L 431 -48.6 Q 430.9 -47.7 430.7 -46.8 L 430.7 -46.8 L 430.7 -46.8 Q 430.5 -45.9 430.5 -45 L 430.5 -45 L 430.5 -45 Q 430.5 -44.1 430.8 -43.5 L 430.8 -43.5 L 430.8 -43.5 Q 431.2 -42.9 431.6 -42.5 L 431.6 -42.5 L 431.6 -42.5 Q 432.4 -42 433.7 -42 L 433.7 -42 L 433.7 -42 Q 435.1 -42 436.3 -43.6 L 436.3 -43.6 L 436.3 -43.6 Q 437.5 -45.3 438.1 -48.2 L 438.1 -48.2 L 441.6 -65.9 L 454.2 -67.2 L 449.4 -42 L 449.4 -42 Q 447 -29.8 442.2 -24.9 L 442.2 -24.9 L 442.2 -24.9 Q 439.7 -22.4 436.4 -21.4 L 436.4 -21.4 L 436.4 -21.4 Q 433.2 -20.4 429 -20.4 L 429 -20.4 L 429 -20.4 Q 422.3 -20.4 418.5 -22.5 L 418.5 -22.5 L 418.5 -22.5 Q 414.6 -24.6 414.6 -28.2 L 414.6 -28.2 L 414.6 -28.2 Q 414.6 -30.8 416.6 -32.3 L 416.6 -32.3 L 416.6 -32.3 Q 418.6 -33.8 421.7 -33.8 L 421.7 -33.8 L 421.7 -33.8 Q 424.4 -33.8 426.4 -32.6 L 426.4 -32.6 L 426.4 -32.6 Q 427.6 -31.9 428.2 -31 L 428.2 -31 L 428.2 -31 Q 426.7 -29.8 426.7 -27.6 L 426.7 -27.6 L 426.7 -27.6 Q 426.7 -24.8 429.3 -24.8 L 429.3 -24.8 L 429.3 -24.8 Q 433.5 -24.8 436 -34.6 L 436 -34.6 L 436 -34.6 Q 436.7 -37.4 437.3 -40.5 Z" fill="url(#editing-gradow-gradient)"></path></g></g><style>text {
  font-size: 64px;
  font-family: Arial Black;
  dominant-baseline: central;
  text-anchor: middle;
}</style>
</svg>